<svg xmlns="http://www.w3.org/2000/svg" width="30.894" height="39.043" viewBox="0 0 30.894 39.043">
  <path id="bell" d="M83.69,31.071a6.066,6.066,0,0,1-1.843-2.51c-1.588-3.362-1.922-8.1-1.922-11.477,0-.015,0-.029,0-.044A11.078,11.078,0,0,0,73.4,6.992V4.349A4.351,4.351,0,0,0,69.061,0H68.7a4.351,4.351,0,0,0-4.342,4.349V6.992a11.078,11.078,0,0,0-6.522,10.091c0,3.381-.333,8.116-1.922,11.477a6.066,6.066,0,0,1-1.843,2.51,1.112,1.112,0,0,0-.611,1.265,1.164,1.164,0,0,0,1.147.894h8.384a5.889,5.889,0,0,0,11.777,0h8.384a1.164,1.164,0,0,0,1.147-.894A1.112,1.112,0,0,0,83.69,31.071ZM66.647,4.349A2.059,2.059,0,0,1,68.7,2.291h.36a2.059,2.059,0,0,1,2.054,2.058v1.9a11.078,11.078,0,0,0-4.469,0v-1.9Zm2.234,32.4a3.609,3.609,0,0,1-3.6-3.522h7.2A3.609,3.609,0,0,1,68.881,36.752Zm4.606-5.814H57.215a11.99,11.99,0,0,0,.6-1.052c1.533-3.023,2.31-7.33,2.31-12.8a8.756,8.756,0,1,1,17.512,0c0,.014,0,.028,0,.042,0,5.45.782,9.742,2.31,12.757a12,12,0,0,0,.6,1.052Z" transform="translate(-53.434)" fill="#a1a1a1"/>
</svg>
